<mxfile host="www.draw.io" modified="2019-11-28T08:09:13.171Z" agent="Mozilla/5.0 (Windows NT 10.0; Win64; x64) AppleWebKit/537.36 (KHTML, like Gecko) Chrome/73.0.3683.86 Safari/537.36" etag="f8gT2OT5Ows1uHhMAXQP" version="12.3.2" type="github" pages="1">
  <diagram id="-yFMah9nlYu9oXamQMR5" name="Page-1">
    <mxGraphModel dx="1460" dy="554" grid="1" gridSize="10" guides="1" tooltips="1" connect="1" arrows="1" fold="1" page="1" pageScale="1" pageWidth="850" pageHeight="1100" math="0" shadow="0">
      <root>
        <mxCell id="0"/>
        <mxCell id="1" parent="0"/>
        <mxCell id="ZT4xKeRxhwtV3itARGBF-40" value="" style="shape=image;html=1;verticalAlign=top;verticalLabelPosition=bottom;labelBackgroundColor=#ffffff;imageAspect=0;aspect=fixed;image=https://cdn2.iconfinder.com/data/icons/whcompare-isometric-web-hosting-servers/50/server-2-128.png" parent="1" vertex="1">
          <mxGeometry x="491" y="399" width="110" height="110" as="geometry"/>
        </mxCell>
        <mxCell id="srwLFo3CpR1ze2gh4oJ3-1" value="" style="verticalLabelPosition=bottom;verticalAlign=top;html=1;shape=mxgraph.basic.rect;fillColor2=none;strokeWidth=1;size=20;indent=5;rotation=90;" parent="1" vertex="1">
          <mxGeometry x="70" y="282" width="270" height="30" as="geometry"/>
        </mxCell>
        <mxCell id="srwLFo3CpR1ze2gh4oJ3-2" value="" style="shadow=0;dashed=0;html=1;labelPosition=center;verticalLabelPosition=bottom;verticalAlign=top;align=center;outlineConnect=0;shape=mxgraph.veeam.3d.esx_esxi;" parent="1" vertex="1">
          <mxGeometry x="270" y="172" width="38" height="52" as="geometry"/>
        </mxCell>
        <mxCell id="srwLFo3CpR1ze2gh4oJ3-3" value="" style="verticalLabelPosition=bottom;html=1;verticalAlign=top;align=center;strokeColor=none;fillColor=#00BEF2;shape=mxgraph.azure.virtual_machine;" parent="1" vertex="1">
          <mxGeometry x="360" y="102" width="50" height="40" as="geometry"/>
        </mxCell>
        <mxCell id="srwLFo3CpR1ze2gh4oJ3-4" value="" style="verticalLabelPosition=bottom;html=1;verticalAlign=top;align=center;strokeColor=none;fillColor=#00BEF2;shape=mxgraph.azure.virtual_machine;" parent="1" vertex="1">
          <mxGeometry x="360" y="214" width="50" height="40" as="geometry"/>
        </mxCell>
        <mxCell id="srwLFo3CpR1ze2gh4oJ3-5" value="Management VM&#39;s" style="text;html=1;strokeColor=none;fillColor=none;align=center;verticalAlign=middle;whiteSpace=wrap;rounded=0;rotation=0;" parent="1" vertex="1">
          <mxGeometry x="325" y="89" width="130" height="10" as="geometry"/>
        </mxCell>
        <mxCell id="srwLFo3CpR1ze2gh4oJ3-6" value="Management ESXi" style="text;html=1;strokeColor=none;fillColor=none;align=center;verticalAlign=middle;whiteSpace=wrap;rounded=0;" parent="1" vertex="1">
          <mxGeometry x="260" y="132" width="40" height="20" as="geometry"/>
        </mxCell>
        <mxCell id="srwLFo3CpR1ze2gh4oJ3-7" value="" style="shadow=0;dashed=0;html=1;labelPosition=center;verticalLabelPosition=bottom;verticalAlign=top;align=center;outlineConnect=0;shape=mxgraph.veeam.3d.esx_esxi;" parent="1" vertex="1">
          <mxGeometry x="271" y="380" width="38" height="52" as="geometry"/>
        </mxCell>
        <mxCell id="srwLFo3CpR1ze2gh4oJ3-8" value="" style="verticalLabelPosition=bottom;html=1;verticalAlign=top;align=center;strokeColor=none;fillColor=#00BEF2;shape=mxgraph.azure.virtual_machine;" parent="1" vertex="1">
          <mxGeometry x="360" y="158" width="50" height="40" as="geometry"/>
        </mxCell>
        <mxCell id="srwLFo3CpR1ze2gh4oJ3-9" value="Production ESXi" style="text;html=1;strokeColor=none;fillColor=none;align=center;verticalAlign=middle;whiteSpace=wrap;rounded=0;" parent="1" vertex="1">
          <mxGeometry x="260" y="342" width="40" height="20" as="geometry"/>
        </mxCell>
        <mxCell id="srwLFo3CpR1ze2gh4oJ3-10" value="" style="verticalLabelPosition=bottom;html=1;verticalAlign=top;align=center;strokeColor=none;fillColor=#00BEF2;shape=mxgraph.azure.virtual_machine;" parent="1" vertex="1">
          <mxGeometry x="360" y="342" width="50" height="40" as="geometry"/>
        </mxCell>
        <mxCell id="srwLFo3CpR1ze2gh4oJ3-11" value="" style="verticalLabelPosition=bottom;html=1;verticalAlign=top;align=center;strokeColor=none;fillColor=#00BEF2;shape=mxgraph.azure.virtual_machine;" parent="1" vertex="1">
          <mxGeometry x="360" y="454" width="50" height="40" as="geometry"/>
        </mxCell>
        <mxCell id="srwLFo3CpR1ze2gh4oJ3-12" value="Production VM&#39;s (Customer Configurable)" style="text;html=1;strokeColor=none;fillColor=none;align=center;verticalAlign=middle;whiteSpace=wrap;rounded=0;rotation=0;" parent="1" vertex="1">
          <mxGeometry x="311.5" y="502" width="147" height="24" as="geometry"/>
        </mxCell>
        <mxCell id="srwLFo3CpR1ze2gh4oJ3-13" value="" style="verticalLabelPosition=bottom;html=1;verticalAlign=top;align=center;strokeColor=none;fillColor=#00BEF2;shape=mxgraph.azure.virtual_machine;" parent="1" vertex="1">
          <mxGeometry x="360" y="398" width="50" height="40" as="geometry"/>
        </mxCell>
        <mxCell id="srwLFo3CpR1ze2gh4oJ3-14" value="Deploy Platform Controller ESX Hyper-visor" style="text;html=1;strokeColor=none;fillColor=none;align=center;verticalAlign=middle;whiteSpace=wrap;rounded=0;rotation=-90;" parent="1" vertex="1">
          <mxGeometry x="72" y="283" width="266" height="30" as="geometry"/>
        </mxCell>
        <mxCell id="srwLFo3CpR1ze2gh4oJ3-15" value="" style="endArrow=classic;startArrow=classic;html=1;" parent="1" edge="1">
          <mxGeometry width="50" height="50" relative="1" as="geometry">
            <mxPoint x="219" y="202" as="sourcePoint"/>
            <mxPoint x="270" y="202" as="targetPoint"/>
          </mxGeometry>
        </mxCell>
        <mxCell id="srwLFo3CpR1ze2gh4oJ3-16" value="" style="endArrow=classic;startArrow=classic;html=1;" parent="1" edge="1">
          <mxGeometry width="50" height="50" relative="1" as="geometry">
            <mxPoint x="220" y="402" as="sourcePoint"/>
            <mxPoint x="270.9999999999998" y="402" as="targetPoint"/>
          </mxGeometry>
        </mxCell>
        <mxCell id="srwLFo3CpR1ze2gh4oJ3-17" value="" style="endArrow=none;dashed=1;html=1;" parent="1" edge="1">
          <mxGeometry width="50" height="50" relative="1" as="geometry">
            <mxPoint x="340" y="472" as="sourcePoint"/>
            <mxPoint x="340.0000000000002" y="121" as="targetPoint"/>
          </mxGeometry>
        </mxCell>
        <mxCell id="srwLFo3CpR1ze2gh4oJ3-18" value="" style="endArrow=classic;startArrow=classic;html=1;" parent="1" edge="1">
          <mxGeometry width="50" height="50" relative="1" as="geometry">
            <mxPoint x="340.0000000000002" y="472" as="sourcePoint"/>
            <mxPoint x="360.0000000000002" y="472" as="targetPoint"/>
          </mxGeometry>
        </mxCell>
        <mxCell id="srwLFo3CpR1ze2gh4oJ3-19" value="" style="endArrow=classic;startArrow=classic;html=1;" parent="1" edge="1">
          <mxGeometry width="50" height="50" relative="1" as="geometry">
            <mxPoint x="341.5" y="422" as="sourcePoint"/>
            <mxPoint x="361.5" y="422" as="targetPoint"/>
          </mxGeometry>
        </mxCell>
        <mxCell id="srwLFo3CpR1ze2gh4oJ3-20" value="" style="endArrow=classic;startArrow=classic;html=1;" parent="1" edge="1">
          <mxGeometry width="50" height="50" relative="1" as="geometry">
            <mxPoint x="340.0000000000002" y="362" as="sourcePoint"/>
            <mxPoint x="360.0000000000002" y="362" as="targetPoint"/>
          </mxGeometry>
        </mxCell>
        <mxCell id="srwLFo3CpR1ze2gh4oJ3-21" value="" style="endArrow=classic;startArrow=classic;html=1;" parent="1" edge="1">
          <mxGeometry width="50" height="50" relative="1" as="geometry">
            <mxPoint x="340.0000000000002" y="234" as="sourcePoint"/>
            <mxPoint x="360.0000000000002" y="234" as="targetPoint"/>
          </mxGeometry>
        </mxCell>
        <mxCell id="srwLFo3CpR1ze2gh4oJ3-22" value="" style="endArrow=classic;startArrow=classic;html=1;" parent="1" edge="1">
          <mxGeometry width="50" height="50" relative="1" as="geometry">
            <mxPoint x="340.0000000000002" y="182" as="sourcePoint"/>
            <mxPoint x="360.0000000000002" y="182" as="targetPoint"/>
          </mxGeometry>
        </mxCell>
        <mxCell id="srwLFo3CpR1ze2gh4oJ3-23" value="" style="endArrow=classic;startArrow=classic;html=1;" parent="1" edge="1">
          <mxGeometry width="50" height="50" relative="1" as="geometry">
            <mxPoint x="340.0000000000002" y="122" as="sourcePoint"/>
            <mxPoint x="360.0000000000002" y="122" as="targetPoint"/>
          </mxGeometry>
        </mxCell>
        <mxCell id="srwLFo3CpR1ze2gh4oJ3-24" value="" style="endArrow=classic;startArrow=classic;html=1;" parent="1" edge="1">
          <mxGeometry width="50" height="50" relative="1" as="geometry">
            <mxPoint x="310" y="405.9999999999999" as="sourcePoint"/>
            <mxPoint x="340.0000000000002" y="405.5000000000001" as="targetPoint"/>
          </mxGeometry>
        </mxCell>
        <mxCell id="srwLFo3CpR1ze2gh4oJ3-25" value="" style="endArrow=classic;startArrow=classic;html=1;" parent="1" edge="1">
          <mxGeometry width="50" height="50" relative="1" as="geometry">
            <mxPoint x="308" y="202.5" as="sourcePoint"/>
            <mxPoint x="338" y="202" as="targetPoint"/>
          </mxGeometry>
        </mxCell>
        <mxCell id="srwLFo3CpR1ze2gh4oJ3-29" value="" style="verticalLabelPosition=bottom;html=1;verticalAlign=top;align=center;strokeColor=none;fillColor=#00BEF2;shape=mxgraph.azure.virtual_machine;" parent="1" vertex="1">
          <mxGeometry x="510" y="222" width="80" height="42" as="geometry"/>
        </mxCell>
        <mxCell id="srwLFo3CpR1ze2gh4oJ3-31" value="" style="fontColor=#0066CC;verticalAlign=top;verticalLabelPosition=bottom;labelPosition=center;align=center;html=1;outlineConnect=0;fillColor=#CCCCCC;strokeColor=#6881B3;gradientColor=none;gradientDirection=north;strokeWidth=2;shape=mxgraph.networks.switch;rotation=-90;" parent="1" vertex="1">
          <mxGeometry x="520" y="300.5" width="305" height="29" as="geometry"/>
        </mxCell>
        <mxCell id="srwLFo3CpR1ze2gh4oJ3-33" value="Network Switch" style="text;html=1;strokeColor=none;fillColor=none;align=center;verticalAlign=middle;whiteSpace=wrap;rounded=0;rotation=90;" parent="1" vertex="1">
          <mxGeometry x="579" y="305.5" width="246" height="20" as="geometry"/>
        </mxCell>
        <mxCell id="srwLFo3CpR1ze2gh4oJ3-35" value="" style="endArrow=classic;startArrow=classic;html=1;entryX=1;entryY=0.5;entryDx=0;entryDy=0;entryPerimeter=0;" parent="1" target="srwLFo3CpR1ze2gh4oJ3-29" edge="1">
          <mxGeometry width="50" height="50" relative="1" as="geometry">
            <mxPoint x="657" y="243" as="sourcePoint"/>
            <mxPoint x="621.4000000000001" y="244.08000000000004" as="targetPoint"/>
          </mxGeometry>
        </mxCell>
        <mxCell id="srwLFo3CpR1ze2gh4oJ3-37" value="PowerProtect Data Manager 19.x Software" style="text;html=1;strokeColor=none;fillColor=none;align=center;verticalAlign=middle;whiteSpace=wrap;rounded=0;" parent="1" vertex="1">
          <mxGeometry x="502.5" y="188" width="95" height="20" as="geometry"/>
        </mxCell>
        <mxCell id="srwLFo3CpR1ze2gh4oJ3-39" value="&lt;font style=&quot;font-size: 18px&quot;&gt;&lt;span style=&quot;font-family: &amp;#34;arial&amp;#34; ; color: rgb(0 , 125 , 184) ; font-weight: bold ; vertical-align: baseline&quot;&gt;PPDM&amp;nbsp;Software and hardware - Data &lt;/span&gt;&lt;span style=&quot;font-family: &amp;#34;arial&amp;#34; ; color: rgb(0 , 125 , 184) ; font-weight: bold ; vertical-align: baseline&quot;&gt;Domain&amp;nbsp;&lt;/span&gt;&lt;span style=&quot;font-family: &amp;#34;arial&amp;#34; ; color: rgb(0 , 125 , 184) ; font-weight: bold ; vertical-align: baseline&quot;&gt;based&amp;nbsp;solution&lt;/span&gt;&lt;/font&gt;&lt;span style=&quot;font-size: 28pt ; font-family: &amp;#34;arial&amp;#34; ; color: rgb(0 , 125 , 184) ; vertical-align: baseline&quot;&gt;&lt;br&gt;&lt;/span&gt;" style="text;html=1;strokeColor=none;fillColor=none;align=center;verticalAlign=middle;whiteSpace=wrap;rounded=0;" parent="1" vertex="1">
          <mxGeometry x="50" y="30" width="700" height="20" as="geometry"/>
        </mxCell>
        <mxCell id="srwLFo3CpR1ze2gh4oJ3-42" value="" style="endArrow=none;dashed=1;html=1;" parent="1" edge="1">
          <mxGeometry width="50" height="50" relative="1" as="geometry">
            <mxPoint x="439.5" y="482" as="sourcePoint"/>
            <mxPoint x="439.5" y="122" as="targetPoint"/>
          </mxGeometry>
        </mxCell>
        <mxCell id="srwLFo3CpR1ze2gh4oJ3-43" value="" style="endArrow=classic;startArrow=classic;html=1;entryX=0;entryY=0.5;entryDx=0;entryDy=0;entryPerimeter=0;" parent="1" target="srwLFo3CpR1ze2gh4oJ3-29" edge="1">
          <mxGeometry width="50" height="50" relative="1" as="geometry">
            <mxPoint x="438.5" y="242.5" as="sourcePoint"/>
            <mxPoint x="478.5" y="242.5" as="targetPoint"/>
          </mxGeometry>
        </mxCell>
        <mxCell id="srwLFo3CpR1ze2gh4oJ3-44" value="" style="endArrow=classic;startArrow=classic;html=1;exitX=1;exitY=0.5;exitDx=0;exitDy=0;exitPerimeter=0;" parent="1" source="srwLFo3CpR1ze2gh4oJ3-3" edge="1">
          <mxGeometry width="50" height="50" relative="1" as="geometry">
            <mxPoint x="415" y="122" as="sourcePoint"/>
            <mxPoint x="440" y="122" as="targetPoint"/>
          </mxGeometry>
        </mxCell>
        <mxCell id="srwLFo3CpR1ze2gh4oJ3-45" value="" style="endArrow=classic;startArrow=classic;html=1;exitX=1;exitY=0.5;exitDx=0;exitDy=0;exitPerimeter=0;" parent="1" edge="1">
          <mxGeometry width="50" height="50" relative="1" as="geometry">
            <mxPoint x="410" y="182" as="sourcePoint"/>
            <mxPoint x="440" y="182" as="targetPoint"/>
          </mxGeometry>
        </mxCell>
        <mxCell id="srwLFo3CpR1ze2gh4oJ3-46" value="" style="endArrow=classic;startArrow=classic;html=1;exitX=1;exitY=0.5;exitDx=0;exitDy=0;exitPerimeter=0;" parent="1" edge="1">
          <mxGeometry width="50" height="50" relative="1" as="geometry">
            <mxPoint x="410" y="234" as="sourcePoint"/>
            <mxPoint x="440" y="234" as="targetPoint"/>
          </mxGeometry>
        </mxCell>
        <mxCell id="srwLFo3CpR1ze2gh4oJ3-47" value="" style="endArrow=classic;startArrow=classic;html=1;exitX=1;exitY=0.5;exitDx=0;exitDy=0;exitPerimeter=0;" parent="1" edge="1">
          <mxGeometry width="50" height="50" relative="1" as="geometry">
            <mxPoint x="410" y="360.5" as="sourcePoint"/>
            <mxPoint x="440" y="360.5" as="targetPoint"/>
          </mxGeometry>
        </mxCell>
        <mxCell id="srwLFo3CpR1ze2gh4oJ3-48" value="" style="endArrow=classic;startArrow=classic;html=1;exitX=1;exitY=0.5;exitDx=0;exitDy=0;exitPerimeter=0;" parent="1" edge="1">
          <mxGeometry width="50" height="50" relative="1" as="geometry">
            <mxPoint x="410" y="418" as="sourcePoint"/>
            <mxPoint x="440" y="418" as="targetPoint"/>
          </mxGeometry>
        </mxCell>
        <mxCell id="srwLFo3CpR1ze2gh4oJ3-49" value="" style="endArrow=classic;startArrow=classic;html=1;exitX=1;exitY=0.5;exitDx=0;exitDy=0;exitPerimeter=0;" parent="1" edge="1">
          <mxGeometry width="50" height="50" relative="1" as="geometry">
            <mxPoint x="410" y="482" as="sourcePoint"/>
            <mxPoint x="440" y="482" as="targetPoint"/>
          </mxGeometry>
        </mxCell>
        <mxCell id="srwLFo3CpR1ze2gh4oJ3-58" value="" style="endArrow=classic;startArrow=classic;html=1;" parent="1" edge="1">
          <mxGeometry width="50" height="50" relative="1" as="geometry">
            <mxPoint x="549" y="260" as="sourcePoint"/>
            <mxPoint x="549" y="402" as="targetPoint"/>
          </mxGeometry>
        </mxCell>
        <mxCell id="srwLFo3CpR1ze2gh4oJ3-63" value="&lt;font style=&quot;font-size: 12px&quot;&gt;&lt;b&gt;DATA DOMAIN&lt;/b&gt;&lt;/font&gt;" style="text;html=1;strokeColor=none;fillColor=none;align=center;verticalAlign=middle;whiteSpace=wrap;rounded=0;rotation=0;" parent="1" vertex="1">
          <mxGeometry x="566.5" y="474" width="92" height="40" as="geometry"/>
        </mxCell>
        <mxCell id="ZT4xKeRxhwtV3itARGBF-41" value="&lt;span style=&quot;font-size: 10px&quot;&gt;Physical Data Domain DD6x, 9x Series&lt;/span&gt;" style="text;html=1;strokeColor=none;fillColor=none;align=center;verticalAlign=middle;whiteSpace=wrap;rounded=0;rotation=0;" parent="1" vertex="1">
          <mxGeometry x="493" y="514" width="147" height="24" as="geometry"/>
        </mxCell>
        <mxCell id="ZT4xKeRxhwtV3itARGBF-43" value="" style="endArrow=classic;startArrow=classic;html=1;" parent="1" edge="1">
          <mxGeometry width="50" height="50" relative="1" as="geometry">
            <mxPoint x="579" y="441" as="sourcePoint"/>
            <mxPoint x="660" y="441" as="targetPoint"/>
          </mxGeometry>
        </mxCell>
      </root>
    </mxGraphModel>
  </diagram>
</mxfile>
